<svg width="1920" height="400" viewBox="0 0 1920 400" fill="none" xmlns="http://www.w3.org/2000/svg">
<path fill-rule="evenodd" clip-rule="evenodd" d="M0.451668 2.99758H6.96573H13.6899L23.9863 4.04768H32.3916H35.9638L38.9057 5.3982H42.688L46.2602 4.04768L51.5135 5.3982L66.643 8.39936L75.0482 9.29971L102.024 10.6981L113.722 9.29971L127.131 6.8269L133.123 2.99758H137.973L147.674 0.103206L162.719 1.42935L176.424 2.99758L190.677 5.34414L200.545 15.1311L210.96 17.0885H222.473H251.801L258.38 13.9567H270.44L276.196 12.7822L284.967 13.9567L293.739 11.6078L305.656 12.7822L314.531 14.9206L327.187 15.7422L332.939 16.6812L343.129 25.4837H357.428L369.902 28.1517H374.252H379.534L388.545 29.7049L402.838 28.1517L411.228 31.2582L414.646 40.7996L422.725 34.1428H433.911H446.65L454.418 31.2582L468.09 28.1517L473.78 29.2223L477.717 28.1517L488.654 29.2223H501.778L514.683 24.5364L522.994 27.1917L533.712 28.1517L539.399 40.4686L545.523 31.2582L549.242 30.3157L552.96 32.9711L559.959 31.2582L569.146 34.1428H575.27L579.645 25.786L590.144 28.1517L605.851 30.5786H624.222L632.986 17.0985H646.807L654.897 16.0152L659.784 13.247H666.02L671.919 11.8027H680.009H691.152L700.176 8.10903L715.592 10.2571L737.024 11.8027L757.327 13.247L768.607 16.0152L816.734 17.0985L828.766 8.10903L848.318 10.2571L863.357 8.10903L889.301 10.2571H908.101L912.989 12.6736L929.156 17.0985H951.716L954.348 12.6736L956.98 10.2571L973.148 12.6736H982.547L996.835 17.0985L1004.45 17.9625H1009.67L1013.23 17.0985L1015.99 17.9625L1020.71 18.6882L1044.72 17.9625L1050.14 15.51H1056.28L1069.65 12.6736H1083.01H1095.29L1106.85 10.2571H1118.41L1127.44 12.6736L1138.64 15.51L1157.06 18.3474L1167.9 20.9269L1177.29 18.3474L1190.29 20.9269H1202.94L1207.63 17.0577L1220.63 15.51L1229.67 12.6736L1250.98 10.2571H1268.32H1278.43L1292.52 8.2874L1302.27 6.22381L1319.25 4.93406L1330.52 4.02141L1344.38 4.93406C1347.99 5.30008 1355.65 6.00118 1357.38 5.87745C1359.11 5.75371 1363.88 5.19697 1366.04 4.93406H1376.01L1377.09 1.39203L1382.72 0L1387.27 2.32005H1398.31L1402.86 5.87745L1421.49 7.88816H1433.19L1436.87 6.96014L1443.8 7.88816H1452.46L1459.39 10.0535L1461.99 8.81618H1466.54L1472.17 10.0535L1481.05 10.8269L1487.12 13.4563L1513.02 14.3503H1530L1541.16 12.0978H1548.44L1551.84 7.88816L1555.24 6.96014L1564.94 5.1671L1576.59 4.1275L1593.33 6.96014L1604.73 8.81618L1626.09 10.8269L1649.07 12.0978L1666.5 10.8269L1679.35 7.88816H1693.11L1712.38 6.96014L1730.72 8.81618L1756.41 10.8269H1782.1L1800.45 13.8367H1818.8L1821.85 12.5015L1825.2 12.2226L1830.75 14.5096L1839.11 16.9081L1844.5 17.8006L1868.48 18.8046L1874.65 16.0714H1877.85L1882.15 14.5096L1887.72 12.3315L1893.1 13.8702L1897.57 12.3315H1901.49L1902.88 13.2107L1906.57 13.8702L1910.19 12.8261L1913.96 13.2107L1916.34 13.8702H1919.42L1919.42 148.142L1919.42 242.381L1919.42 397.002H1912.91H1906.18L1895.89 395.952H1887.48H1883.91L1880.97 394.602H1877.18L1873.61 395.952L1868.36 394.602L1853.23 391.6L1844.82 390.7L1817.85 389.302L1806.15 390.7L1792.74 393.173L1786.75 397.002H1781.9L1772.2 399.896L1757.15 398.57L1743.45 397.002L1729.2 394.656L1719.33 384.869L1708.91 382.911H1697.4H1668.07L1661.49 386.043H1649.43L1643.68 387.217L1634.9 386.043L1626.13 388.392L1614.22 387.217L1605.34 385.079L1592.69 384.257L1586.93 383.319L1576.74 374.516H1562.44L1549.97 371.848H1545.62H1540.34L1531.33 370.295L1517.03 371.848L1508.64 368.742L1505.23 359.2L1497.15 365.857H1485.96H1473.22L1465.45 368.742L1451.78 371.848L1446.09 370.777L1442.15 371.848L1431.22 370.777H1418.09L1405.19 375.463L1396.88 372.808L1386.16 371.848L1380.47 359.531L1374.35 368.742L1370.63 369.684L1366.91 367.029L1359.91 368.742L1350.73 365.857H1344.6L1340.23 374.214L1329.73 371.848L1314.02 369.421H1295.65L1286.89 382.901H1273.07L1264.98 383.984L1260.09 386.753H1253.85L1247.95 388.197H1239.86H1228.72L1219.7 391.891L1204.28 389.743L1182.85 388.197L1162.55 386.753L1151.27 383.984L1103.14 382.901L1091.11 391.891L1071.55 389.743L1056.51 391.891L1030.57 389.743H1011.77L1006.88 387.326L990.716 382.901H968.156L965.524 387.326L962.892 389.743L946.725 387.326H937.325L923.037 382.901L915.425 382.037H910.199L906.643 382.901L903.885 382.037L899.167 381.312L875.149 382.037L869.731 384.49H863.59L850.225 387.326H836.86H824.579L813.02 389.743H801.461L792.431 387.326L781.233 384.49L762.811 381.652L751.975 379.073L742.583 381.652L729.58 379.073H716.937L712.241 382.942L699.238 384.49L690.207 387.326L668.896 389.743H651.557H641.443L627.356 391.712L617.603 393.776L600.626 395.066L589.35 395.978L575.488 395.066C571.878 394.7 564.226 393.999 562.493 394.122C560.76 394.246 555.995 394.803 553.829 395.066H543.866L542.783 398.608L537.152 400L532.604 397.68H521.558L517.009 394.122L498.383 392.112H486.687L483.005 393.04L476.074 392.112H467.41L460.48 389.946L457.881 391.184H453.332L447.701 389.946L438.821 389.173L432.756 386.543L406.853 385.649H389.869L378.708 387.902H371.429L368.032 392.112L364.635 393.04L354.93 394.833L343.283 395.872L326.542 393.04L315.138 391.184L293.786 389.173L270.8 387.902L253.369 389.173L240.525 392.112H226.763L207.497 393.04L189.149 391.184L163.461 389.173H137.773L119.424 386.163H101.076L98.0268 387.498L94.6681 387.777L89.1222 385.49L80.7643 383.092L75.3746 382.199L51.3945 381.195L45.2237 383.928H42.0212L37.7251 385.49L32.1561 387.668L26.7694 386.13L22.3061 387.668H18.3816L16.9965 386.789L13.3027 386.13L9.6859 387.174L5.91528 386.789L3.52966 386.13H0.451652V157.618L0.451668 2.99758Z" fill="#D9D9D9"/>
</svg>
