<svg width="17" height="23" viewBox="0 0 17 23" fill="none" xmlns="http://www.w3.org/2000/svg">
<path d="M1.2002 3.66992L1.2002 21.4199C1.2002 21.558 1.31212 21.6699 1.4502 21.6699L15.9502 21.6699C16.0883 21.6699 16.2002 21.558 16.2002 21.4199V3.66992C16.2002 2.56535 15.3048 1.66992 14.2002 1.66992H3.2002C2.09563 1.66992 1.2002 2.56535 1.2002 3.66992Z" stroke="#757575" stroke-width="1.5"/>
<path d="M6.7002 21.6699V18.1699C6.7002 17.8938 6.92405 17.6699 7.2002 17.6699H10.2002C10.4763 17.6699 10.7002 17.8938 10.7002 18.1699V21.6699" stroke="#757575" stroke-width="1.5"/>
<path d="M4.4502 4.86992V6.46992C4.4502 6.58038 4.53974 6.66992 4.6502 6.66992H6.7502C6.86065 6.66992 6.9502 6.58038 6.9502 6.46992V4.86992C6.9502 4.75946 6.86065 4.66992 6.7502 4.66992H4.6502C4.53974 4.66992 4.4502 4.75946 4.4502 4.86992Z" fill="#757575"/>
<path d="M4.4502 8.86992V10.4699C4.4502 10.5804 4.53974 10.6699 4.6502 10.6699H6.7502C6.86065 10.6699 6.9502 10.5804 6.9502 10.4699V8.86992C6.9502 8.75946 6.86065 8.66992 6.7502 8.66992H4.6502C4.53974 8.66992 4.4502 8.75946 4.4502 8.86992Z" fill="#757575"/>
<path d="M4.4502 12.8699V14.4699C4.4502 14.5804 4.53974 14.6699 4.6502 14.6699H6.7502C6.86065 14.6699 6.9502 14.5804 6.9502 14.4699V12.8699C6.9502 12.7595 6.86065 12.6699 6.7502 12.6699H4.6502C4.53974 12.6699 4.4502 12.7595 4.4502 12.8699Z" fill="#757575"/>
<path d="M10.4502 4.86992V6.46992C10.4502 6.58038 10.5397 6.66992 10.6502 6.66992H12.7502C12.8607 6.66992 12.9502 6.58038 12.9502 6.46992V4.86992C12.9502 4.75946 12.8607 4.66992 12.7502 4.66992H10.6502C10.5397 4.66992 10.4502 4.75946 10.4502 4.86992Z" fill="#757575"/>
<path d="M10.4502 8.86992V10.4699C10.4502 10.5804 10.5397 10.6699 10.6502 10.6699H12.7502C12.8607 10.6699 12.9502 10.5804 12.9502 10.4699V8.86992C12.9502 8.75946 12.8607 8.66992 12.7502 8.66992H10.6502C10.5397 8.66992 10.4502 8.75946 10.4502 8.86992Z" fill="#757575"/>
<path d="M10.4502 12.8699V14.4699C10.4502 14.5804 10.5397 14.6699 10.6502 14.6699H12.7502C12.8607 14.6699 12.9502 14.5804 12.9502 14.4699V12.8699C12.9502 12.7595 12.8607 12.6699 12.7502 12.6699H10.6502C10.5397 12.6699 10.4502 12.7595 10.4502 12.8699Z" fill="#757575"/>
</svg>
