<svg width="30" height="32" viewBox="0 0 30 32" fill="none" xmlns="http://www.w3.org/2000/svg">
<path d="M27.0413 19.541V7.49935C27.0413 5.93454 25.7727 4.66602 24.2079 4.66602H4.37459C2.80978 4.66602 1.54126 5.93454 1.54126 7.49935V24.4993C1.54126 26.0642 2.80978 27.3327 4.37459 27.3327H14.9996" stroke="black" stroke-width="2.125"/>
<path d="M21.3745 1.83301V7.49967" stroke="black" stroke-width="2.125" stroke-linecap="round"/>
<path d="M7.20801 1.83301V7.49967" stroke="black" stroke-width="2.125" stroke-linecap="round"/>
<path d="M28.4577 23.0833C28.4577 19.1713 25.2864 16 21.3743 16C17.4623 16 14.291 19.1713 14.291 23.0833C14.291 26.9953 17.4623 30.1667 21.3743 30.1667C25.2864 30.1667 28.4577 26.9953 28.4577 23.0833Z" stroke="black" stroke-width="2.125"/>
<path d="M21.3743 19.6367V23.0827L23.6716 25.38" stroke="black" stroke-width="2.125" stroke-linecap="round" stroke-linejoin="round"/>
</svg>
