<svg width="38" height="38" viewBox="0 0 38 38" fill="none" xmlns="http://www.w3.org/2000/svg">
<path d="M34.8327 19.0001C34.8327 10.2556 27.7439 3.16675 18.9993 3.16675C10.2548 3.16675 3.16602 10.2556 3.16602 19.0001C3.16602 27.7446 10.2548 34.8334 18.9993 34.8334C27.7439 34.8334 34.8327 27.7446 34.8327 19.0001Z" stroke="white" stroke-width="2.375"/>
<path d="M23.75 15.8333C23.75 18.4567 21.6233 20.5833 19 20.5833C16.3767 20.5833 14.25 18.4567 14.25 15.8333C14.25 13.21 16.3767 11.0833 19 11.0833C21.6233 11.0833 23.75 13.21 23.75 15.8333Z" stroke="white" stroke-width="2.375"/>
<path d="M28.5 31.6666C28.5 28.1688 24.2467 25.3333 19 25.3333C13.7533 25.3333 9.5 28.1688 9.5 31.6666" stroke="white" stroke-width="2.375" stroke-linecap="round"/>
</svg>
