<svg width="19" height="25" viewBox="0 0 19 25" fill="none" xmlns="http://www.w3.org/2000/svg">
<path d="M2.84987 0.702672L4.78687 0.118672C5.42614 -0.0737618 6.11359 -0.0270717 6.72098 0.250033C7.32836 0.527137 7.8142 1.01573 8.08787 1.62467L9.44587 4.64467C9.68157 5.16859 9.74726 5.75318 9.63373 6.31635C9.5202 6.87952 9.23314 7.39299 8.81287 7.78467L6.74587 9.71067C6.46887 9.97367 6.67887 10.9987 7.69087 12.7527C8.70387 14.5077 9.48687 15.2017 9.84787 15.0937L12.5559 14.2657C13.1048 14.0978 13.6925 14.1058 14.2366 14.2888C14.7807 14.4717 15.2539 14.8203 15.5899 15.2857L17.5199 17.9607C17.9097 18.5008 18.0902 19.1641 18.0278 19.8274C17.9655 20.4906 17.6645 21.1086 17.1809 21.5667L15.6889 22.9797C15.2072 23.4358 14.6132 23.756 13.9674 23.9076C13.3216 24.0592 12.6472 24.0368 12.0129 23.8427C8.88687 22.8857 5.99187 20.0457 3.28887 15.3627C0.579869 10.6727 -0.443131 6.71667 0.269869 3.48467C0.413674 2.83343 0.728559 2.23231 1.18206 1.7433C1.63557 1.25429 2.21129 0.895067 2.84987 0.702672Z" fill="white"/>
</svg>
