<svg width="30" height="31" viewBox="0 0 30 31" fill="none" xmlns="http://www.w3.org/2000/svg">
<path d="M8.69951 0.486267H21.2995C26.0995 0.486267 29.9995 4.38627 29.9995 9.18627V21.7863C29.9995 24.0937 29.0829 26.3065 27.4513 27.9381C25.8198 29.5697 23.6069 30.4863 21.2995 30.4863H8.69951C3.89951 30.4863 -0.000488281 26.5863 -0.000488281 21.7863V9.18627C-0.000488281 6.87888 0.916116 4.66601 2.54768 3.03444C4.17925 1.40287 6.39213 0.486267 8.69951 0.486267ZM8.39951 3.48627C6.96734 3.48627 5.59383 4.05519 4.58114 5.06789C3.56844 6.08059 2.99951 7.4541 2.99951 8.88627V22.0863C2.99951 25.0713 5.41451 27.4863 8.39951 27.4863H21.5995C23.0317 27.4863 24.4052 26.9173 25.4179 25.9046C26.4306 24.892 26.9995 23.5184 26.9995 22.0863V8.88627C26.9995 5.90127 24.5845 3.48627 21.5995 3.48627H8.39951ZM22.8745 5.73627C23.3718 5.73627 23.8487 5.93381 24.2003 6.28544C24.552 6.63707 24.7495 7.11399 24.7495 7.61127C24.7495 8.10855 24.552 8.58546 24.2003 8.93709C23.8487 9.28872 23.3718 9.48627 22.8745 9.48627C22.3772 9.48627 21.9003 9.28872 21.5487 8.93709C21.1971 8.58546 20.9995 8.10855 20.9995 7.61127C20.9995 7.11399 21.1971 6.63707 21.5487 6.28544C21.9003 5.93381 22.3772 5.73627 22.8745 5.73627ZM14.9995 7.98627C16.9886 7.98627 18.8963 8.77644 20.3028 10.183C21.7093 11.5895 22.4995 13.4971 22.4995 15.4863C22.4995 17.4754 21.7093 19.383 20.3028 20.7896C18.8963 22.1961 16.9886 22.9863 14.9995 22.9863C13.0104 22.9863 11.1027 22.1961 9.69621 20.7896C8.28969 19.383 7.49951 17.4754 7.49951 15.4863C7.49951 13.4971 8.28969 11.5895 9.69621 10.183C11.1027 8.77644 13.0104 7.98627 14.9995 7.98627ZM14.9995 10.9863C13.806 10.9863 12.6614 11.4604 11.8175 12.3043C10.9736 13.1482 10.4995 14.2928 10.4995 15.4863C10.4995 16.6797 10.9736 17.8243 11.8175 18.6682C12.6614 19.5122 13.806 19.9863 14.9995 19.9863C16.193 19.9863 17.3376 19.5122 18.1815 18.6682C19.0254 17.8243 19.4995 16.6797 19.4995 15.4863C19.4995 14.2928 19.0254 13.1482 18.1815 12.3043C17.3376 11.4604 16.193 10.9863 14.9995 10.9863Z" fill="black" fill-opacity="0.72"/>
</svg>
