<svg width="30" height="31" viewBox="0 0 30 31" fill="none" xmlns="http://www.w3.org/2000/svg">
<path d="M25.5752 4.85154C24.2 3.46243 22.562 2.36104 20.7567 1.61162C18.9513 0.862191 17.0149 0.47973 15.0602 0.48654C6.8702 0.48654 0.195196 7.16154 0.195196 15.3515C0.195196 17.9765 0.885195 20.5265 2.1752 22.7765L0.0751953 30.4865L7.9502 28.4165C10.1252 29.6015 12.5702 30.2315 15.0602 30.2315C23.2502 30.2315 29.9252 23.5565 29.9252 15.3665C29.9252 11.3915 28.3802 7.65654 25.5752 4.85154ZM15.0602 27.7115C12.8402 27.7115 10.6652 27.1115 8.7602 25.9865L8.3102 25.7165L3.6302 26.9465L4.8752 22.3865L4.5752 21.9215C3.34181 19.952 2.68691 17.6754 2.6852 15.3515C2.6852 8.54154 8.2352 2.99154 15.0452 2.99154C18.3452 2.99154 21.4502 4.28154 23.7752 6.62154C24.9264 7.76748 25.8387 9.13053 26.4593 10.6317C27.0798 12.1328 27.3962 13.7422 27.3902 15.3665C27.4202 22.1765 21.8702 27.7115 15.0602 27.7115ZM21.8402 18.4715C21.4652 18.2915 19.6352 17.3915 19.3052 17.2565C18.9602 17.1365 18.7202 17.0765 18.4652 17.4365C18.2102 17.8115 17.5052 18.6515 17.2952 18.8915C17.0852 19.1465 16.8602 19.1765 16.4852 18.9815C16.1102 18.8015 14.9102 18.3965 13.5002 17.1365C12.3902 16.1465 11.6552 14.9315 11.4302 14.5565C11.2202 14.1815 11.4002 13.9865 11.5952 13.7915C11.7602 13.6265 11.9702 13.3565 12.1502 13.1465C12.3302 12.9365 12.4052 12.7715 12.5252 12.5315C12.6452 12.2765 12.5852 12.0665 12.4952 11.8865C12.4052 11.7065 11.6552 9.87654 11.3552 9.12654C11.0552 8.40654 10.7402 8.49654 10.5152 8.48154H9.7952C9.5402 8.48154 9.1502 8.57154 8.8052 8.94654C8.4752 9.32154 7.5152 10.2215 7.5152 12.0515C7.5152 13.8815 8.8502 15.6515 9.0302 15.8915C9.2102 16.1465 11.6552 19.8965 15.3752 21.5015C16.2602 21.8915 16.9502 22.1165 17.4902 22.2815C18.3752 22.5665 19.1852 22.5215 19.8302 22.4315C20.5502 22.3265 22.0352 21.5315 22.3352 20.6615C22.6502 19.7915 22.6502 19.0565 22.5452 18.8915C22.4402 18.7265 22.2152 18.6515 21.8402 18.4715Z" fill="black" fill-opacity="0.72"/>
</svg>
