<svg width="32" height="32" viewBox="0 0 32 32" fill="none" xmlns="http://www.w3.org/2000/svg">
<g opacity="0.5">
<path d="M8.96289 3.3335V8.96313" stroke="#121219" stroke-width="2" stroke-linecap="round"/>
<path d="M23.0356 3.3335V8.96313" stroke="#121219" stroke-width="2" stroke-linecap="round"/>
<path d="M28.666 26.0003V8.8151C28.666 7.34234 27.4721 6.14844 25.9993 6.14844H5.99935C4.52659 6.14844 3.33268 7.34235 3.33268 8.81511V26.0003C3.33268 27.473 4.52659 28.667 5.99935 28.667H25.9993C27.4721 28.667 28.666 27.473 28.666 26.0003Z" stroke="#121219" stroke-width="2"/>
<path d="M8.96112 16.0004C9.73841 16.0004 10.3685 15.3702 10.3685 14.593C10.3685 13.8157 9.73841 13.1855 8.96112 13.1855C8.18383 13.1855 7.55371 13.8157 7.55371 14.593C7.55371 15.3702 8.18383 16.0004 8.96112 16.0004Z" fill="#121219"/>
<path d="M16.0002 16.0004C16.7775 16.0004 17.4076 15.3702 17.4076 14.593C17.4076 13.8157 16.7775 13.1855 16.0002 13.1855C15.2229 13.1855 14.5928 13.8157 14.5928 14.593C14.5928 15.3702 15.2229 16.0004 16.0002 16.0004Z" fill="#121219"/>
<path d="M23.0368 16.0004C23.8141 16.0004 24.4442 15.3702 24.4442 14.593C24.4442 13.8157 23.8141 13.1855 23.0368 13.1855C22.2595 13.1855 21.6294 13.8157 21.6294 14.593C21.6294 15.3702 22.2595 16.0004 23.0368 16.0004Z" fill="#121219"/>
<path d="M8.96112 24.4447C9.73841 24.4447 10.3685 23.8146 10.3685 23.0373C10.3685 22.26 9.73841 21.6299 8.96112 21.6299C8.18383 21.6299 7.55371 22.26 7.55371 23.0373C7.55371 23.8146 8.18383 24.4447 8.96112 24.4447Z" fill="#121219"/>
<path d="M16.0002 24.4447C16.7775 24.4447 17.4076 23.8146 17.4076 23.0373C17.4076 22.26 16.7775 21.6299 16.0002 21.6299C15.2229 21.6299 14.5928 22.26 14.5928 23.0373C14.5928 23.8146 15.2229 24.4447 16.0002 24.4447Z" fill="#121219"/>
<path d="M23.0368 24.4447C23.8141 24.4447 24.4442 23.8146 24.4442 23.0373C24.4442 22.26 23.8141 21.6299 23.0368 21.6299C22.2595 21.6299 21.6294 22.26 21.6294 23.0373C21.6294 23.8146 22.2595 24.4447 23.0368 24.4447Z" fill="#121219"/>
</g>
</svg>
