<svg width="27" height="27" viewBox="0 0 27 27" fill="none" xmlns="http://www.w3.org/2000/svg">
<path d="M8.13123 0.597656H19.0419C23.1984 0.597656 26.5755 3.97478 26.5755 8.13123V19.0419C26.5755 21.0399 25.7818 22.9561 24.369 24.369C22.9561 25.7818 21.0399 26.5755 19.0419 26.5755H8.13123C3.97478 26.5755 0.597656 23.1984 0.597656 19.0419V8.13123C0.597656 6.1332 1.39137 4.21701 2.80419 2.80419C4.21701 1.39137 6.1332 0.597656 8.13123 0.597656ZM7.87145 3.19544C6.6313 3.19544 5.44193 3.68809 4.56501 4.56501C3.68809 5.44193 3.19544 6.6313 3.19544 7.87145V19.3017C3.19544 21.8865 5.28666 23.9777 7.87145 23.9777H19.3017C20.5419 23.9777 21.7312 23.4851 22.6081 22.6081C23.4851 21.7312 23.9777 20.5419 23.9777 19.3017V7.87145C23.9777 5.28666 21.8865 3.19544 19.3017 3.19544H7.87145ZM20.4058 5.14378C20.8364 5.14378 21.2493 5.31484 21.5538 5.61932C21.8583 5.92381 22.0294 6.33678 22.0294 6.76739C22.0294 7.198 21.8583 7.61097 21.5538 7.91546C21.2493 8.21995 20.8364 8.39101 20.4058 8.39101C19.9751 8.39101 19.5622 8.21995 19.2577 7.91546C18.9532 7.61097 18.7821 7.198 18.7821 6.76739C18.7821 6.33678 18.9532 5.92381 19.2577 5.61932C19.5622 5.31484 19.9751 5.14378 20.4058 5.14378ZM13.5866 7.09212C15.309 7.09212 16.9609 7.77635 18.1789 8.9943C19.3968 10.2122 20.081 11.8641 20.081 13.5866C20.081 15.309 19.3968 16.9609 18.1789 18.1789C16.9609 19.3968 15.309 20.081 13.5866 20.081C11.8641 20.081 10.2122 19.3968 8.9943 18.1789C7.77635 16.9609 7.09212 15.309 7.09212 13.5866C7.09212 11.8641 7.77635 10.2122 8.9943 8.9943C10.2122 7.77635 11.8641 7.09212 13.5866 7.09212ZM13.5866 9.6899C12.5531 9.6899 11.562 10.1004 10.8312 10.8312C10.1004 11.562 9.6899 12.5531 9.6899 13.5866C9.6899 14.62 10.1004 15.6112 10.8312 16.3419C11.562 17.0727 12.5531 17.4833 13.5866 17.4833C14.62 17.4833 15.6112 17.0727 16.3419 16.3419C17.0727 15.6112 17.4833 14.62 17.4833 13.5866C17.4833 12.5531 17.0727 11.562 16.3419 10.8312C15.6112 10.1004 14.62 9.6899 13.5866 9.6899Z" fill="white"/>
</svg>
