<svg width="51" height="50" viewBox="0 0 51 50" fill="none" xmlns="http://www.w3.org/2000/svg">
<path d="M22.654 6.27586C23.7631 3.83004 27.2369 3.83005 28.346 6.27586L28.9614 7.63294C29.7205 9.3067 31.753 9.96724 33.351 9.0595L34.7148 8.28476C37.0861 6.93776 39.9243 9.06194 39.3005 11.7168L39.0762 12.6715C38.6405 14.5257 39.9507 16.335 41.8483 16.4996L42.9679 16.5967C45.7438 16.8375 46.8406 20.316 44.7048 22.1054L44.109 22.6046C42.6182 23.8536 42.6182 26.1464 44.109 27.3954L44.7048 27.8946C46.8406 29.684 45.7438 33.1625 42.9679 33.4033L41.8483 33.5004C39.9507 33.665 38.6405 35.4743 39.0762 37.3285L39.3005 38.2832C39.9243 40.9381 37.0861 43.0622 34.7148 41.7152L33.351 40.9405C31.753 40.0328 29.7205 40.6933 28.9614 42.3671L28.346 43.7241C27.2369 46.17 23.7631 46.17 22.654 43.7241L22.0386 42.3671C21.2795 40.6933 19.247 40.0328 17.649 40.9405L16.2852 41.7152C13.9139 43.0622 11.0757 40.9381 11.6995 38.2832L11.9238 37.3285C12.3595 35.4743 11.0493 33.665 9.15171 33.5004L8.03206 33.4033C5.25616 33.1625 4.15938 29.684 6.29515 27.8946L6.891 27.3954C8.38175 26.1464 8.38175 23.8536 6.891 22.6046L6.29516 22.1054C4.15938 20.316 5.25616 16.8375 8.03206 16.5967L9.15171 16.4996C11.0493 16.335 12.3595 14.5257 11.9238 12.6715L11.6995 11.7168C11.0757 9.06195 13.9139 6.93777 16.2852 8.28476L17.649 9.05951C19.247 9.96725 21.2795 9.3067 22.0386 7.63294L22.654 6.27586Z" stroke="white" stroke-width="3.125" stroke-miterlimit="10"/>
<path d="M17.4004 20.7063C18.6208 21.9267 20.5994 21.9267 21.8198 20.7063C23.0402 19.4859 23.0402 17.5072 21.8198 16.2869C20.5994 15.0665 18.6208 15.0665 17.4004 16.2869C16.18 17.5072 16.18 19.4859 17.4004 20.7063Z" fill="white"/>
<path d="M31.7622 18.7383L19.2405 31.26" stroke="white" stroke-width="3.125" stroke-linecap="round"/>
<path d="M29.1843 32.4914C30.4047 33.7118 32.3833 33.7118 33.6037 32.4914C34.8241 31.271 34.8241 29.2924 33.6037 28.072C32.3833 26.8516 30.4047 26.8516 29.1843 28.072C27.9639 29.2924 27.9639 31.271 29.1843 32.4914Z" fill="white"/>
</svg>
