<svg width="22" height="23" viewBox="0 0 22 23" fill="none" xmlns="http://www.w3.org/2000/svg">
<path d="M18.8756 10.5005C18.8756 6.151 15.3496 2.625 11.0001 2.625C6.65051 2.625 3.12451 6.151 3.12451 10.5005C3.12451 14.8501 6.65051 18.3761 11.0001 18.3761C15.3496 18.3761 18.8756 14.8501 18.8756 10.5005Z" stroke="#121219" stroke-width="1.5"/>
<path d="M9.6875 0.200442V1.90059C9.6875 2.01104 9.77704 2.10059 9.8875 2.10059L12.1127 2.10059C12.2231 2.10059 12.3127 2.01104 12.3127 1.90059V0.200442C12.3127 0.0899849 12.2231 0.00044179 12.1127 0.00044179L9.8875 0.00044179C9.77704 0.00044179 9.6875 0.0899849 9.6875 0.200442Z" fill="#121219"/>
<path d="M9.6875 19.1008V20.801C9.6875 20.9114 9.77704 21.001 9.8875 21.001H12.1127C12.2231 21.001 12.3127 20.9114 12.3127 20.801V19.1008C12.3127 18.9904 12.2231 18.9008 12.1127 18.9008H9.8875C9.77704 18.9008 9.6875 18.9904 9.6875 19.1008Z" fill="#121219"/>
<path d="M0.236816 9.65064L0.236816 11.3508C0.236816 11.4612 0.326359 11.5508 0.436816 11.5508H2.662C2.77245 11.5508 2.862 11.4612 2.862 11.3508V9.65064C2.862 9.54018 2.77245 9.45064 2.662 9.45064H0.436816C0.326359 9.45064 0.236816 9.54018 0.236816 9.65064Z" fill="#121219"/>
<path d="M2.5 3.87525V5.57539C2.5 5.68585 2.58954 5.77539 2.7 5.77539H4.92518C5.03564 5.77539 5.12518 5.68585 5.12518 5.57539V3.87525C5.12518 3.76479 5.03564 3.67525 4.92518 3.67525L2.7 3.67525C2.58954 3.67525 2.5 3.76479 2.5 3.87525Z" fill="#121219"/>
<path d="M16.8701 3.87525V5.57539C16.8701 5.68585 16.9597 5.77539 17.0701 5.77539H19.2953C19.4058 5.77539 19.4953 5.68585 19.4953 5.57539V3.87525C19.4953 3.76479 19.4058 3.67525 19.2953 3.67525L17.0701 3.67525C16.9597 3.67525 16.8701 3.76479 16.8701 3.87525Z" fill="#121219"/>
<path d="M2.5 15.426V17.1262C2.5 17.2366 2.58954 17.3262 2.7 17.3262H4.92518C5.03564 17.3262 5.12518 17.2366 5.12518 17.1262V15.426C5.12518 15.3156 5.03564 15.226 4.92518 15.226H2.7C2.58954 15.226 2.5 15.3156 2.5 15.426Z" fill="#121219"/>
<path d="M16.8701 15.426V17.1262C16.8701 17.2366 16.9597 17.3262 17.0701 17.3262H19.2953C19.4058 17.3262 19.4953 17.2366 19.4953 17.1262V15.426C19.4953 15.3156 19.4058 15.226 19.2953 15.226H17.0701C16.9597 15.226 16.8701 15.3156 16.8701 15.426Z" fill="#121219"/>
<path d="M19.1382 9.65064V11.3508C19.1382 11.4612 19.2277 11.5508 19.3382 11.5508H21.5634C21.6738 11.5508 21.7634 11.4612 21.7634 11.3508V9.65064C21.7634 9.54018 21.6738 9.45064 21.5634 9.45064H19.3382C19.2277 9.45064 19.1382 9.54018 19.1382 9.65064Z" fill="#121219"/>
<path d="M18.3507 22.0514L16.7755 22.0514L10.3857 11.9749C10.1482 11.6003 10.2704 11.1033 10.6545 10.8816C11.0214 10.6697 11.4903 10.7895 11.7107 11.1513L18.3507 22.0514Z" fill="#121219"/>
<path d="M3.64969 22.0515L5.2248 22.0515L11.6184 11.9751C11.8561 11.6005 11.734 11.1034 11.3498 10.8816C10.983 10.6698 10.5141 10.7895 10.2937 11.1512L3.64969 22.0515Z" fill="#121219"/>
</svg>
