<svg width="16" height="22" viewBox="0 0 16 22" fill="none" xmlns="http://www.w3.org/2000/svg">
<path d="M2.72846 1.45169L4.38874 0.951119C4.93669 0.786176 5.52594 0.826196 6.04655 1.06371C6.56717 1.30123 6.9836 1.72003 7.21817 2.24198L8.38217 4.83055C8.5842 5.27962 8.64051 5.7807 8.5432 6.26341C8.44588 6.74613 8.19984 7.18625 7.8396 7.52198L6.06789 9.17283C5.83046 9.39826 6.01046 10.2768 6.87789 11.7803C7.74617 13.2845 8.41732 13.8794 8.72674 13.7868L11.0479 13.0771C11.5184 12.9332 12.0221 12.9401 12.4885 13.0969C12.9548 13.2537 13.3605 13.5525 13.6485 13.9514L15.3027 16.2443C15.6369 16.7073 15.7916 17.2758 15.7382 17.8443C15.6847 18.4128 15.4267 18.9425 15.0122 19.3351L13.7333 20.5463C13.3205 20.9372 12.8113 21.2117 12.2578 21.3416C11.7042 21.4716 11.1261 21.4524 10.5825 21.286C7.90303 20.4657 5.4216 18.0314 3.10474 14.0174C0.782744 9.99741 -0.0941127 6.60655 0.51703 3.83626C0.640291 3.27805 0.910193 2.76281 1.29891 2.34366C1.68763 1.9245 2.1811 1.6166 2.72846 1.45169Z" fill="#EC3237"/>
</svg>
