<svg width="22" height="22" viewBox="0 0 22 22" fill="none" xmlns="http://www.w3.org/2000/svg">
<path d="M15.0138 2.22073C13.7272 1.59569 12.2826 1.24512 10.7561 1.24512C5.36795 1.24512 1 5.61307 1 11.0012C1 16.3894 5.36795 20.7573 10.7561 20.7573C12.7384 20.7573 14.5825 20.1661 16.122 19.1505" stroke="#121219" stroke-width="1.5" stroke-linecap="round"/>
<path d="M13.683 11.001C13.683 9.3846 12.3726 8.07422 10.7562 8.07422C9.13973 8.07422 7.82935 9.3846 7.82935 11.001C7.82935 12.6175 9.13973 13.9279 10.7562 13.9279C12.3726 13.9279 13.683 12.6175 13.683 11.001Z" stroke="#121219" stroke-width="1.5"/>
<path d="M20.9996 12.9524V5.14756V1.55296C20.9996 1.39267 20.8545 1.27151 20.6968 1.30019V1.30019C17.7649 1.83325 15.6338 4.38678 15.6338 7.36671V11.638C15.6338 11.8403 15.7633 12.02 15.9553 12.084L18.5606 12.9524" stroke="#121219" stroke-width="1.5" stroke-linecap="round"/>
<path d="M18.561 12.9521L18.1064 20.2258C18.0885 20.5137 18.3171 20.757 18.6055 20.757H20.5001C20.7762 20.757 21.0001 20.5332 21.0001 20.257V15.5538V12.9521" stroke="#121219" stroke-width="1.5" stroke-linecap="round"/>
</svg>
