<svg width="22" height="28" viewBox="0 0 22 28" fill="none" xmlns="http://www.w3.org/2000/svg">
<path d="M11 14C11.7563 14 12.4039 13.7256 12.9429 13.1768C13.481 12.6289 13.75 11.97 13.75 11.2C13.75 10.43 13.481 9.7706 12.9429 9.2218C12.4039 8.67393 11.7563 8.4 11 8.4C10.2437 8.4 9.59658 8.67393 9.0585 9.2218C8.5195 9.7706 8.25 10.43 8.25 11.2C8.25 11.97 8.5195 12.6289 9.0585 13.1768C9.59658 13.7256 10.2437 14 11 14ZM11 24.29C13.7958 21.6767 15.8698 19.3023 17.2219 17.1668C18.574 15.0323 19.25 13.1367 19.25 11.48C19.25 8.93667 18.4534 6.85393 16.8602 5.2318C15.268 3.6106 13.3146 2.8 11 2.8C8.68542 2.8 6.73154 3.6106 5.13837 5.2318C3.54612 6.85393 2.75 8.93667 2.75 11.48C2.75 13.1367 3.42604 15.0323 4.77812 17.1668C6.13021 19.3023 8.20417 21.6767 11 24.29ZM11 28C7.31042 24.8033 4.55492 21.8339 2.7335 19.0918C0.911167 16.3506 0 13.8133 0 11.48C0 7.98 1.10596 5.19167 3.31788 3.115C5.52888 1.03833 8.08958 0 11 0C13.9104 0 16.4711 1.03833 18.6821 3.115C20.894 5.19167 22 7.98 22 11.48C22 13.8133 21.0893 16.3506 19.2679 19.0918C17.4455 21.8339 14.6896 24.8033 11 28Z" fill="black"/>
</svg>
