<svg width="20" height="17" viewBox="0 0 20 17" fill="none" xmlns="http://www.w3.org/2000/svg">
<path d="M18 4.13513L10 9.13513L2 4.13513V2.13513L10 7.13513L18 2.13513M18 0.135132H2C0.89 0.135132 0 1.02513 0 2.13513V14.1351C0 14.6656 0.210714 15.1743 0.585786 15.5493C0.960859 15.9244 1.46957 16.1351 2 16.1351H18C18.5304 16.1351 19.0391 15.9244 19.4142 15.5493C19.7893 15.1743 20 14.6656 20 14.1351V2.13513C20 1.6047 19.7893 1.09599 19.4142 0.720918C19.0391 0.345845 18.5304 0.135132 18 0.135132Z" fill="#EC3237"/>
</svg>
