<svg width="15" height="15" viewBox="0 0 15 15" fill="none" xmlns="http://www.w3.org/2000/svg">
<path d="M10.4171 9.66665H9.75872L9.52539 9.44165C10.0462 8.83662 10.4268 8.12396 10.64 7.35466C10.8532 6.58536 10.8938 5.77844 10.7587 4.99165C10.3671 2.67498 8.43372 0.824979 6.10038 0.541646C5.28006 0.437867 4.44688 0.523122 3.66457 0.790886C2.88227 1.05865 2.17159 1.50183 1.58691 2.08651C1.00223 2.67118 0.559057 3.38186 0.291293 4.16417C0.0235283 4.94647 -0.0617266 5.77966 0.0420519 6.59998C0.325385 8.93331 2.17539 10.8666 4.49205 11.2583C5.27885 11.3934 6.08576 11.3528 6.85506 11.1396C7.62436 10.9264 8.33702 10.5458 8.94205 10.025L9.16705 10.2583V10.9166L12.7087 14.4583C13.0504 14.8 13.6087 14.8 13.9504 14.4583C14.2921 14.1166 14.2921 13.5583 13.9504 13.2166L10.4171 9.66665ZM5.41705 9.66665C3.34205 9.66665 1.66705 7.99165 1.66705 5.91665C1.66705 3.84165 3.34205 2.16665 5.41705 2.16665C7.49205 2.16665 9.16705 3.84165 9.16705 5.91665C9.16705 7.99165 7.49205 9.66665 5.41705 9.66665Z" fill="white"/>
</svg>
