<svg width="924" height="235" viewBox="0 0 924 235" fill="none" xmlns="http://www.w3.org/2000/svg">
<path fill-rule="evenodd" clip-rule="evenodd" d="M0 197.954V0L0.295044 6.73413L0.591064 13.4671L5.08209 13.1401C7.55209 12.9601 10.29 12.4291 11.165 11.9601C12.041 11.4921 19.6381 11.1001 28.0471 11.0911C36.4561 11.0811 46.881 10.5551 51.2141 9.92212C60.022 8.63409 72.556 9.8891 77.998 12.6031C82.76 14.9791 87.2481 15.3261 96.3971 14.0281C103.346 13.0411 105.279 12.3691 107.06 10.3201C109.21 7.84808 109.365 7.82611 119.914 8.52911C125.786 8.9201 131.266 9.57111 132.091 9.9751C132.916 10.3791 136.265 10.8021 139.532 10.9141C142.8 11.0261 145.812 11.3281 146.226 11.5831C146.64 11.8391 151.305 11.7441 156.593 11.3721C164.006 10.8511 166.793 10.2361 168.766 8.68408C171.444 6.57709 180.675 5.55408 193.591 5.93311C199.058 6.09308 199.794 5.86011 201.874 3.30408C203.95 0.754089 204.25 0.659058 205.174 2.25006C205.92 3.53406 207.474 4.00006 211.015 4.00006C213.668 4.00006 217.809 4.70209 220.215 5.56006C222.68 6.43811 227.747 7.10907 231.817 7.09509C235.791 7.08209 240.741 7.65509 242.817 8.3681C248.177 10.2091 254.841 9.35309 256.249 6.64307C257.866 3.52905 257.878 3.52606 259.816 5.7951C261.419 7.67108 262.125 7.78406 267.091 6.95306C272.049 6.12408 272.743 6.23309 274.131 8.06409C275.497 9.86505 276.284 10.0041 281.131 9.29706C290.449 7.93707 294.457 8.65607 296.46 12.0481C297.708 14.1611 298.97 14.9981 300.898 14.9921C302.379 14.9871 306.516 15.6401 310.091 16.4421C323.113 19.3651 328.586 19.774 343.591 18.9481C369.557 17.5201 378.182 17.7651 381.288 20.0221C384.626 22.4471 400.193 23.35 413.713 21.9011C434.508 19.673 436.865 19.631 438.687 21.4531C440.067 22.8331 441.571 23.0561 446.494 22.6111C465.713 20.8751 477.126 20.7921 483.794 22.3391C493.234 24.5291 508.983 25.2531 519.091 23.9611C535.155 21.907 546.492 21.6431 549.678 23.2471C551.28 24.053 559.341 25.689 567.591 26.881C575.841 28.074 585.741 29.5461 589.591 30.152C593.441 30.7581 602.651 31.441 610.058 31.67C618.054 31.9171 623.793 32.5181 624.184 33.15C624.589 33.806 626.525 33.972 629.217 33.5831C635.164 32.722 644.452 32.054 657.591 31.541C663.641 31.3051 673.246 30.7991 678.935 30.418C688.782 29.757 698.84 30.895 701.591 32.981C704.965 35.5391 709.935 35.9171 722.591 34.577C736.286 33.126 753.22 33.475 756.591 35.277C759.453 36.807 812.081 36.215 832.299 34.425C838.123 33.9091 841.192 34.13 844.855 35.328C850.444 37.156 881.697 38.366 886.522 36.941C888.134 36.465 897.247 36.197 906.772 36.344L924 36.6116V232.488L923.796 227.833L923.5 221.1L919.009 221.427C916.539 221.607 913.801 222.138 912.926 222.607C912.05 223.075 904.453 223.467 896.044 223.476C887.635 223.486 877.21 224.012 872.877 224.645C864.069 225.933 851.535 224.678 846.093 221.964C841.331 219.588 836.843 219.241 827.694 220.539C820.745 221.526 818.812 222.198 817.031 224.247C814.881 226.719 814.726 226.741 804.177 226.038C798.305 225.647 792.825 224.996 792 224.592C791.175 224.188 787.826 223.765 784.559 223.653C781.291 223.541 778.279 223.239 777.865 222.984C777.451 222.728 772.786 222.823 767.498 223.195C760.085 223.716 757.298 224.331 755.325 225.883C752.647 227.99 743.416 229.013 730.5 228.634C725.033 228.474 724.297 228.707 722.217 231.263C720.141 233.813 719.841 233.908 718.917 232.317C718.171 231.033 716.617 230.567 713.076 230.567C710.423 230.567 706.282 229.865 703.876 229.007C701.411 228.129 696.344 227.458 692.274 227.472C688.3 227.485 683.35 226.912 681.274 226.199C675.914 224.358 669.25 225.214 667.842 227.924C666.225 231.038 666.213 231.041 664.275 228.772C662.672 226.896 661.966 226.783 657 227.614C652.042 228.443 651.348 228.334 649.96 226.503C648.594 224.702 647.807 224.563 642.96 225.27C633.642 226.63 629.634 225.911 627.631 222.519C626.383 220.406 625.121 219.569 623.193 219.575C621.712 219.58 617.575 218.927 614 218.125C600.978 215.202 595.505 214.793 580.5 215.619C554.534 217.047 545.909 216.802 542.803 214.545C539.465 212.12 523.898 211.217 510.378 212.666C489.583 214.894 487.226 214.936 485.404 213.114C484.024 211.734 482.52 211.511 477.597 211.956C458.378 213.692 446.965 213.775 440.297 212.228C430.857 210.038 415.108 209.314 405 210.606C388.936 212.66 377.599 212.924 374.413 211.32C372.811 210.514 364.75 208.878 356.5 207.686C348.25 206.493 338.35 205.021 334.5 204.415C330.65 203.809 321.44 203.126 314.033 202.897C306.037 202.65 300.298 202.049 299.907 201.417C299.502 200.761 297.566 200.595 294.874 200.984C288.927 201.845 279.639 202.513 266.5 203.026C260.45 203.262 250.845 203.768 245.156 204.149C235.309 204.81 225.251 203.672 222.5 201.586C219.126 199.028 214.156 198.65 201.5 199.99C187.805 201.441 170.871 201.092 167.5 199.29C164.638 197.76 112.01 198.352 91.792 200.142C85.968 200.658 82.899 200.437 79.236 199.239C73.647 197.411 42.394 196.201 37.569 197.626C35.957 198.102 26.844 198.37 17.319 198.223L0 197.954ZM0 234.567V235H924V234.567H462.046H0Z" fill="#D9D9D9"/>
</svg>
