<svg width="36" height="36" viewBox="0 0 36 36" fill="none" xmlns="http://www.w3.org/2000/svg">
<path d="M22.7645 7.07991C20.0307 7.69099 17.0381 9.60554 14.5557 12.0547" stroke="#121219" stroke-width="1.5" stroke-linecap="round"/>
<path d="M25.3891 9.7052C24.778 12.439 22.8635 15.4316 20.4143 17.9141" stroke="#121219" stroke-width="1.5" stroke-linecap="round"/>
<path d="M25.2424 21.3297C28.4618 17.4017 28.238 11.5954 24.5711 7.92849C20.9041 4.26156 15.0979 4.03779 11.1699 7.25719C10.7427 7.60728 10.7455 8.24507 11.136 8.6356L23.864 21.3635C24.2545 21.754 24.8923 21.7568 25.2424 21.3297Z" stroke="#121219" stroke-width="1.5"/>
<path d="M11.136 8.63574L23.8639 21.3637" stroke="#121219" stroke-width="1.5" stroke-linecap="round"/>
<path d="M10.4289 22.0711L17.5 15" stroke="#121219" stroke-width="1.5" stroke-linecap="round"/>
<path d="M9 24.8284C9.56321 24.1399 10.4813 24 11.5 24C11.812 24 12.1301 24.1249 12.4364 24.3231C13.3475 24.913 14.6525 24.913 15.5636 24.3231C15.8699 24.1249 16.188 24 16.5 24C16.812 24 17.1301 24.1249 17.4364 24.3231C18.3475 24.913 19.6525 24.913 20.5636 24.3231C20.8699 24.1249 21.188 24 21.5 24C21.812 24 22.1301 24.1249 22.4364 24.3231C23.3475 24.913 24.6525 24.913 25.5636 24.3231C25.8699 24.1249 26.188 24 26.5 24C27.5187 24 28.4368 24.1399 29 24.8284" stroke="#121219" stroke-width="1.5" stroke-linecap="round"/>
</svg>
