<svg width="27" height="27" viewBox="0 0 27 27" fill="none" xmlns="http://www.w3.org/2000/svg">
<path d="M22.9171 4.37757C21.7263 3.1747 20.3079 2.22098 18.7446 1.57203C17.1813 0.923082 15.5045 0.591898 13.8119 0.597795C6.71992 0.597795 0.939849 6.37786 0.939849 13.4698C0.939849 15.7429 1.53734 17.951 2.65439 19.8993L0.835938 26.5756L7.65512 24.7832C9.53851 25.8093 11.6557 26.3548 13.8119 26.3548C20.9038 26.3548 26.6839 20.5747 26.6839 13.4828C26.6839 10.0407 25.346 6.8065 22.9171 4.37757ZM13.8119 24.1727C11.8895 24.1727 10.0061 23.6531 8.35652 22.679L7.96685 22.4452L3.91431 23.5102L4.99239 19.5616L4.73261 19.159C3.66459 17.4535 3.09749 15.4821 3.09601 13.4698C3.09601 7.57284 7.90191 2.76694 13.7989 2.76694C16.6564 2.76694 19.3451 3.88399 21.3584 5.91026C22.3553 6.90257 23.1453 8.08287 23.6827 9.38275C24.22 10.6826 24.494 12.0762 24.4888 13.4828C24.5147 19.3798 19.7088 24.1727 13.8119 24.1727ZM19.6829 16.1715C19.3581 16.0156 17.7735 15.2363 17.4877 15.1194C17.189 15.0155 16.9812 14.9635 16.7604 15.2753C16.5395 15.6 15.9291 16.3274 15.7472 16.5352C15.5654 16.756 15.3705 16.782 15.0458 16.6131C14.7211 16.4573 13.682 16.1066 12.461 15.0155C11.4998 14.1582 10.8634 13.1061 10.6685 12.7814C10.4867 12.4567 10.6426 12.2878 10.8114 12.119C10.9543 11.9761 11.1362 11.7423 11.292 11.5604C11.4479 11.3786 11.5128 11.2357 11.6167 11.0279C11.7207 10.8071 11.6687 10.6252 11.5908 10.4694C11.5128 10.3135 10.8634 8.72886 10.6036 8.07941C10.3438 7.45594 10.0711 7.53388 9.87623 7.52089H9.25276C9.03195 7.52089 8.69423 7.59882 8.39549 7.92354C8.10973 8.24827 7.27844 9.0276 7.27844 10.6123C7.27844 12.1969 8.43446 13.7296 8.59032 13.9374C8.74619 14.1582 10.8634 17.4055 14.0846 18.7953C14.851 19.133 15.4485 19.3278 15.9161 19.4707C16.6824 19.7175 17.3838 19.6785 17.9423 19.6006C18.5658 19.5097 19.8517 18.8212 20.1115 18.0679C20.3843 17.3145 20.3843 16.6781 20.2933 16.5352C20.2024 16.3923 20.0076 16.3274 19.6829 16.1715Z" fill="white"/>
</svg>
